<svg id="Capa_1" data-name="Capa 1" xmlns="http://www.w3.org/2000/svg" viewBox="0 0 200 45.49"><defs><style>.cls-1,.cls-5{font-size:37.2px;font-family:Brinnan-Bold, Brinnan;font-weight:700;}.cls-1,.cls-10,.cls-5{fill:#011126;}.cls-1{letter-spacing:-0.09em;}.cls-2{letter-spacing:-0.02em;}.cls-3{letter-spacing:-0.02em;}.cls-4{letter-spacing:-0.05em;}.cls-5{letter-spacing:-0.06em;}.cls-6{letter-spacing:-0.02em;}.cls-7{letter-spacing:-0.05em;}.cls-8{letter-spacing:-0.05em;}.cls-9{fill:#00abf9;}</style></defs><text class="cls-1" transform="translate(36.14 31.52) scale(0.96 1)">c<tspan class="cls-2" x="17.19" y="0">o</tspan><tspan class="cls-3" x="40.35" y="0">d</tspan><tspan class="cls-4" x="63.25" y="0">y</tspan></text><text class="cls-5" transform="translate(116.04 31.71) scale(0.96 1)">t<tspan class="cls-6" x="15.78" y="0">e</tspan><tspan class="cls-7" x="36.47" y="0">c</tspan><tspan class="cls-8" x="55.3" y="0">h </tspan></text><circle class="cls-9" cx="23.62" cy="21.92" r="9.65"/><polygon class="cls-10" points="23.42 21.93 19.73 17.72 22.56 14.53 29 21.93 22.56 29.29 19.73 26.1 23.42 21.93"/><polygon class="cls-10" points="7.08 21.93 10.77 17.72 7.95 14.53 1.5 21.93 7.95 29.29 10.77 26.1 7.08 21.93"/><polygon class="cls-9" points="192 27 192 26.7 197 27.39 197 31.7 196.74 31.7 193.73 31.7 192 31.7 192 27.01 192 27 192 27"/></svg>