<svg id="Capa_1" data-name="Capa 1" xmlns="http://www.w3.org/2000/svg" viewBox="0 0 473 121"><defs><style>.cls-1{fill:#011126;}</style></defs><path class="cls-1" d="M57.83,73.25,63.7,85.54A44.15,44.15,0,0,1,42.3,91C33,91,25.42,88.36,19.65,83.25S11,71.4,11,63s2.84-15.12,8.61-20.23S33,35.06,42.3,35.06a45.1,45.1,0,0,1,20.46,4.79L57.2,52.8a34,34,0,0,0-14.9-3.7c-15.31,0-17,10-17,13.92S27,76.94,42.3,76.94A39.37,39.37,0,0,0,57.83,73.25Z"/><path class="cls-1" d="M90.27,91c-9.34,0-16.78-2.51-22.55-7.62S59.11,71.4,59.11,63,62,47.9,67.72,42.79s13.21-7.73,22.55-7.73,16.79,2.62,22.55,7.73,8.61,11.86,8.61,20.23-2.84,15.23-8.61,20.34S99.61,91,90.27,91Zm-7.66-40.8a13.07,13.07,0,0,0-9,9.9,19.39,19.39,0,0,0,0,6,13.11,13.11,0,0,0,9,9.79,27.87,27.87,0,0,0,15.21,0c6.51-1.74,8.19-6.75,9-9.79a14.06,14.06,0,0,0,0-6c-.41-3.37-2.83-7.94-9-9.9A27.87,27.87,0,0,0,82.61,50.18Z"/><path class="cls-1" d="M170.35,90.54l-.42-3.05A43.38,43.38,0,0,1,153.46,91c-8.92,0-16.05-2.51-21.4-7.62s-8-12-8-20.34S126.71,47.9,132,42.79s12.27-7.73,21.19-7.73a43.42,43.42,0,0,1,15.52,3.27V14.94l14.27.76V90.54Zm-1.68-16.32V52.14a37.07,37.07,0,0,0-14.27-3c-10.59,0-15.94,4.67-15.94,13.92s5.35,13.92,15.94,13.92A38.61,38.61,0,0,0,168.67,74.22Z"/><path class="cls-1" d="M242.85,35.93l-28.53,77.13H198l9.86-22.52H206L185.79,36.59l15.1-.66,13.32,39.93,13.43-39.27Z"/><path class="cls-1" d="M288.05,36.5l-1.26,13.92H267.07V71.74c0,4.25,1.68,5.77,10.07,5.77a66.75,66.75,0,0,0,9.55-.65l1.36-.22,1.89,13.6a68.11,68.11,0,0,1-13.53,1.3c-15.74,0-23.6-6.63-23.6-19.8V50.42h-8.92L245,36.5h8.4l4.72-12,8.91-1V36.5Z"/><path class="cls-1" d="M343.09,70.22,303.75,70q3.63,7.52,15.42,7.51a50.05,50.05,0,0,0,17-3.05l4,13.06c-5.77,2.72-12.79,4-21.19,4-9.12,0-16.57-2.61-22.34-7.72S288,72,288,63.59s2.72-15.12,8.18-20.24S309,35.63,318,35.63a25.17,25.17,0,0,1,18,7c4.93,4.57,7.45,10.88,7.45,19ZM303.23,58l25.91-.22c0-5.22-4.2-8.16-10.91-8.16C310.26,49.66,305.22,52.49,303.23,58Z"/><path class="cls-1" d="M392.79,73.81l5.87,12.29a44.18,44.18,0,0,1-21.4,5.44c-9.33,0-16.89-2.61-22.66-7.72S346,72,346,63.59s2.84-15.12,8.6-20.24,13.33-7.72,22.66-7.72a45,45,0,0,1,20.46,4.79l-5.56,12.94a34.15,34.15,0,0,0-14.9-3.7c-15.31,0-17,10-17,13.93s1.68,13.92,17,13.92A39.4,39.4,0,0,0,392.79,73.81Z"/><path class="cls-1" d="M444.69,91.11V60.65a11,11,0,0,0-.95-5.22c-1-3.16-4.72-5.77-12.9-5.77a40.38,40.38,0,0,0-15.31,3.05v38.4H401.36V16.27l14.17-.76V39A48.51,48.51,0,0,1,432,35.63c16.88,0,27,9,27,25V91.11Z"/></svg>