<svg xmlns="http://www.w3.org/2000/svg" viewBox="0 0 1655.86 291.17"><defs><style>.cls-1{fill:#f6f9ff;}</style></defs><g id="Capa_2" data-name="Capa 2"><g id="Capa_1-2" data-name="Capa 1"><path class="cls-1" d="M121,221.58q-10.47,2.4-22.25,4.19a156.6,156.6,0,0,1-23.45,1.79q-19.41,0-33.59-3.44T18.37,212q-9.12-8.66-13.74-23.29T0,151.71Q0,129,5.67,114.08T21.35,90A55.34,55.34,0,0,1,45.69,77.35a131.77,131.77,0,0,1,32-3.59,171,171,0,0,1,23,1.5,184.05,184.05,0,0,1,21.5,4.18l-3.28,26.28a146.1,146.1,0,0,0-18.52-3.44,175.37,175.37,0,0,0-20-1,81.6,81.6,0,0,0-18.66,1.94,30,30,0,0,0-14,7.46q-5.82,5.53-8.81,15.08t-3,24.79q0,15.53,2.53,24.94t7.92,15.08A27.64,27.64,0,0,0,60,198.29a84.52,84.52,0,0,0,20.3,2.09A137.29,137.29,0,0,0,99,199a185.35,185.35,0,0,0,19.26-3.73Z"/><path class="cls-1" d="M278.83,149.61q0,23-4.77,38.23t-13.71,24.34A49.26,49.26,0,0,1,238.75,225a100.52,100.52,0,0,1-28.46,3.73,110,110,0,0,1-28.9-3.43,45.73,45.73,0,0,1-21-12.1q-8.49-8.66-13-23.59T143,151.71q0-23,4.77-38.23t13.56-24.34a48.25,48.25,0,0,1,21.3-12.84,100.12,100.12,0,0,1,28.61-3.73A110,110,0,0,1,240.09,76a46.8,46.8,0,0,1,21.16,12.1q8.63,8.66,13.11,23.59T278.83,149.61ZM243,150.81q0-15.52-2-25.38t-6-15.53a20.5,20.5,0,0,0-10.2-7.77A44.37,44.37,0,0,0,210.59,100a41.64,41.64,0,0,0-14,2.09,21.81,21.81,0,0,0-10,7.62q-4.2,5.52-6,15.38a144.92,144.92,0,0,0-1.8,25.38,147.51,147.51,0,0,0,1.8,25.53q1.8,10,6,15.68a21.38,21.38,0,0,0,10,7.77,49.11,49.11,0,0,0,28.35,0,20.73,20.73,0,0,0,10-7.62q4.05-5.52,6-15.53A137.4,137.4,0,0,0,243,150.81Z"/><path class="cls-1" d="M400.61,209.34a151.48,151.48,0,0,1-22.85,13A63.11,63.11,0,0,1,331.62,224a36.64,36.64,0,0,1-16.27-12.24q-6.72-8.65-10.45-23t-3.74-35.84q0-21.79,5.08-36.73t13.59-24.34a49.66,49.66,0,0,1,19.86-13.59,70.39,70.39,0,0,1,24.48-4.18,72.1,72.1,0,0,1,17.77,2.09,65.07,65.07,0,0,1,15.68,6.27l.3-.3q-.6-8.36-1.05-16t-.44-15.68V4.18h35.83V224.57H403Zm-4.18-99.44a76.09,76.09,0,0,0-13.14-6,42.33,42.33,0,0,0-13.44-2.09,36.23,36.23,0,0,0-12.39,2.1A24.08,24.08,0,0,0,347,111.72q-4.63,5.69-7.31,15.28T337,151.86a128.35,128.35,0,0,0,1.79,23.81q1.8,9.15,5.23,14.39a17,17,0,0,0,8.21,7,31.23,31.23,0,0,0,11,1.8,36.19,36.19,0,0,0,15.53-3.66,118.27,118.27,0,0,0,17.62-10.68Z"/><path class="cls-1" d="M453.94,76.75h38.22l23.5,69q2.39,6.87,4.16,12.69t3.43,11.65q1.63,5.82,3.12,12t3.28,13.29h.59q1.8-7.17,3.45-13.44t3.29-12.1q1.65-5.82,3.45-11.64t4.2-12.4l23.68-69h37.33L545,239.8a138.09,138.09,0,0,1-11.2,24.94,59.61,59.61,0,0,1-13.14,15.68,42.94,42.94,0,0,1-16.57,8.36,88.06,88.06,0,0,1-21.8,2.39,123.54,123.54,0,0,1-13.74-.75,70.13,70.13,0,0,1-11.65-2.24l3.58-26.28a69.8,69.8,0,0,0,9.83,1.19q5.37.3,9.54.3a58.13,58.13,0,0,0,9.69-.74,20.5,20.5,0,0,0,8.19-3.44,26.87,26.87,0,0,0,7-7.46,86.45,86.45,0,0,0,6.41-12.25l6.27-14.93H505.5Z"/><path class="cls-1" d="M661.63,76.75V30.16l35.84-4.78V76.75h62.71v26.88H697.47v67.19A54.41,54.41,0,0,0,699,184.55a18.59,18.59,0,0,0,4.93,9,21.46,21.46,0,0,0,9.41,4.93,55.69,55.69,0,0,0,14.63,1.64,87.55,87.55,0,0,0,18.66-1.79q8.22-1.78,13-3.28l3,25.68q-7.17,2.09-18.07,4.33A128.42,128.42,0,0,1,719,227.26a110.56,110.56,0,0,1-26.13-2.69q-10.9-2.69-17.77-8.51a34.57,34.57,0,0,1-10.15-14.78q-3.28-9-3.29-21.5V103.63H623.41V76.75Z"/><path class="cls-1" d="M903.28,220.69a192.77,192.77,0,0,1-25.23,5.08,219.56,219.56,0,0,1-29.12,1.79,135.34,135.34,0,0,1-29.86-3,47.56,47.56,0,0,1-22.1-11.2q-9-8.2-13.74-23t-4.78-38.67q0-23,5.08-38.23t14.34-24.34A51.34,51.34,0,0,1,820.11,76.3a101.8,101.8,0,0,1,28.22-3.73q15.52,0,26.88,3.13a42.09,42.09,0,0,1,19,10.75q7.62,7.62,11.35,20.76t3.73,33.15c0,3.38,0,6.72-.14,10s-.35,6.72-.75,10.3H814.29q.3,12.85,2.84,20.61t7.46,11.94a27,27,0,0,0,12.7,5.68,97,97,0,0,0,18.21,1.49,151.07,151.07,0,0,0,23.15-1.64q10.59-1.63,21.65-4.33Zm-26-83.32a76.58,76.58,0,0,0-1.94-18.81q-2-7.47-5.82-11.5a21.17,21.17,0,0,0-9.41-5.67,44.43,44.43,0,0,0-12.69-1.65,46.51,46.51,0,0,0-13.44,1.8,24.76,24.76,0,0,0-10.3,6A27.49,27.49,0,0,0,817,119a65.71,65.71,0,0,0-2.69,18.37Z"/><path class="cls-1" d="M1049,221.58q-10.45,2.4-22.25,4.19a156.37,156.37,0,0,1-23.44,1.79q-19.41,0-33.6-3.44T946.46,212q-9.11-8.66-13.74-23.29t-4.63-37q0-22.69,5.68-37.63t15.68-24a55.34,55.34,0,0,1,24.34-12.69,131.71,131.71,0,0,1,32-3.59,170.77,170.77,0,0,1,23,1.5,184.22,184.22,0,0,1,21.51,4.18L1047,105.72a145.63,145.63,0,0,0-18.51-3.44,175.63,175.63,0,0,0-20-1,81.76,81.76,0,0,0-18.67,1.94,29.94,29.94,0,0,0-14,7.46q-5.84,5.53-8.81,15.08t-3,24.79q0,15.53,2.54,24.94t7.91,15.08a27.68,27.68,0,0,0,13.74,7.76,84.55,84.55,0,0,0,20.31,2.09,137,137,0,0,0,18.66-1.34,184.34,184.34,0,0,0,19.26-3.73Z"/><path class="cls-1" d="M1070.3,4.18h35.84V57q0,8.06-.45,15.68t-1,17.17l.3.3a115.89,115.89,0,0,1,21.65-11.5,68.75,68.75,0,0,1,25.83-4.63q21.51,0,32.55,11.5t11,37.18V224.57h-35.83V129.91q0-15.52-5.23-21.36t-14.18-5.82a42.34,42.34,0,0,0-16.73,3.73,83.65,83.65,0,0,0-17.91,10.9V224.57H1070.3Z"/><path class="cls-1" d="M1467.22,271.75a35.92,35.92,0,0,1-6.27.75q-3.59.15-8.37.15-31.65,0-46.58-12.84t-14.93-40.91V187.84a44.89,44.89,0,0,0-2.39-15.08,28,28,0,0,0-7.92-11.65,46.71,46.71,0,0,0-14.48-8.36,90.85,90.85,0,0,0-21.8-4.93V121.24a99.87,99.87,0,0,0,21.8-5.22,46.71,46.71,0,0,0,14.48-8.36,28.21,28.21,0,0,0,7.92-11.5,41.72,41.72,0,0,0,2.39-14.33V51.36q0-27.47,14.63-39.41T1452.58,0q4.79,0,8.37.15t6.27.45V24.79a129.56,129.56,0,0,0-21.65,1.49q-8.52,1.5-13.44,4.93a17.88,17.88,0,0,0-6.87,9,42.21,42.21,0,0,0-1.94,13.88V84.21a74.45,74.45,0,0,1-1.94,17.92,34.29,34.29,0,0,1-6.72,13.59,46,46,0,0,1-12,10.15,89.38,89.38,0,0,1-17.92,7.92,75.64,75.64,0,0,1,17.92,7.76,44.56,44.56,0,0,1,12,10.75,38.16,38.16,0,0,1,6.72,14.93,92.47,92.47,0,0,1,1.94,20V218.3a41.11,41.11,0,0,0,2.09,13.89,18.63,18.63,0,0,0,7,9.25q4.92,3.44,13.44,4.93a126.36,126.36,0,0,0,21.35,1.49Z"/><path class="cls-1" d="M1533.12,247.86a127.41,127.41,0,0,0,21.35-1.49q8.52-1.5,13.44-4.93a18.63,18.63,0,0,0,7-9.25A41.11,41.11,0,0,0,1577,218.3V187.24a92.47,92.47,0,0,1,1.94-20,38.16,38.16,0,0,1,6.72-14.93,44.56,44.56,0,0,1,12-10.75,75.33,75.33,0,0,1,17.91-7.76,89.53,89.53,0,0,1-17.91-7.92,46,46,0,0,1-12-10.15,34.29,34.29,0,0,1-6.72-13.59A74.45,74.45,0,0,1,1577,84.21V54.05a42.21,42.21,0,0,0-1.94-13.88,17.88,17.88,0,0,0-6.87-9q-4.92-3.43-13.44-4.93a129.65,129.65,0,0,0-21.65-1.49V.6q2.69-.3,6.27-.45t8.36-.15q32.26,0,46.89,12t14.63,39.41V81.82a41.73,41.73,0,0,0,2.39,14.34,28.21,28.21,0,0,0,7.92,11.5,46.71,46.71,0,0,0,14.48,8.36,99.87,99.87,0,0,0,21.8,5.22v26.58a90.85,90.85,0,0,0-21.8,4.93,46.71,46.71,0,0,0-14.48,8.36,28,28,0,0,0-7.92,11.65,44.89,44.89,0,0,0-2.39,15.08V218.9q0,28.07-14.93,40.91t-46.59,12.84q-4.77,0-8.36-.15a35.92,35.92,0,0,1-6.27-.75Z"/></g></g></svg>