<svg xmlns="http://www.w3.org/2000/svg" viewBox="0 0 417.71 417.71"><defs><style>.cls-1{fill:#fff;}.cls-2{fill:#00abf9;}</style></defs><g id="Capa_2" data-name="Capa 2"><g id="Capa_1-2" data-name="Capa 1"><rect class="cls-1" width="417.71" height="417.71" rx="143"/><path class="cls-2" d="M287,310.88q-15,3.45-32,6a225.29,225.29,0,0,1-33.72,2.57q-27.93,0-48.33-4.94t-33.5-17.4q-13.11-12.45-19.76-33.5T113,210.36q0-32.64,8.16-54.13t22.55-34.58q14.4-13.09,35-18.25t46-5.16a247.35,247.35,0,0,1,33.08,2.15,272.34,272.34,0,0,1,30.93,6L284,144.21a210.44,210.44,0,0,0-26.63-4.94,250.53,250.53,0,0,0-28.79-1.51,117.14,117.14,0,0,0-26.84,2.8,43.18,43.18,0,0,0-20.19,10.73q-8.39,8-12.68,21.7t-4.29,35.65q0,22.35,3.65,35.87t11.38,21.7a39.8,39.8,0,0,0,19.76,11.16q12,3,29.21,3a195.6,195.6,0,0,0,26.85-1.93,263.54,263.54,0,0,0,27.71-5.37Z"/></g></g></svg>